<?xml version="1.0" encoding="UTF-8" standalone="no"?>
<!-- Created with Inkscape (http://www.inkscape.org/) -->

<svg
   width="256"
   height="256"
   viewBox="0 0 67.733334 67.733334"
   version="1.1"
   id="svg1"
   xml:space="preserve"
   inkscape:version="1.3.2 (091e20ef0f, 2023-11-25)"
   sodipodi:docname="logo.svg"
   xmlns:inkscape="http://www.inkscape.org/namespaces/inkscape"
   xmlns:sodipodi="http://sodipodi.sourceforge.net/DTD/sodipodi-0.dtd"
   xmlns:xlink="http://www.w3.org/1999/xlink"
   xmlns="http://www.w3.org/2000/svg"
   xmlns:svg="http://www.w3.org/2000/svg"><sodipodi:namedview
     id="namedview1"
     pagecolor="#ffffff"
     bordercolor="#000000"
     borderopacity="0.25"
     inkscape:showpageshadow="2"
     inkscape:pageopacity="0.0"
     inkscape:pagecheckerboard="0"
     inkscape:deskcolor="#d1d1d1"
     inkscape:document-units="mm"
     inkscape:zoom="1.7089844"
     inkscape:cx="18.724571"
     inkscape:cy="79.872"
     inkscape:window-width="2560"
     inkscape:window-height="1403"
     inkscape:window-x="0"
     inkscape:window-y="0"
     inkscape:window-maximized="1"
     inkscape:current-layer="layer1" /><defs
     id="defs1"><inkscape:path-effect
       effect="powerstroke"
       id="path-effect43"
       is_visible="true"
       lpeversion="1.3"
       scale_width="1"
       interpolator_type="CentripetalCatmullRom"
       interpolator_beta="0.75"
       start_linecap_type="round"
       end_linecap_type="round"
       offset_points="1.8269952,0.68421"
       linejoin_type="spiro"
       miter_limit="4"
       not_jump="true"
       sort_points="true"
       message="&lt;b&gt;Ctrl + click&lt;/b&gt; on existing node and move it" /><inkscape:path-effect
       effect="simplify"
       id="path-effect42"
       is_visible="true"
       lpeversion="1.3"
       threshold="0.6"
       steps="1"
       smooth_angles="0"
       helper_size="0"
       simplify_individual_paths="false"
       simplify_just_coalesce="false"
       step="1" /><inkscape:path-effect
       effect="powerstroke"
       id="path-effect41"
       is_visible="true"
       lpeversion="1.3"
       scale_width="1"
       interpolator_type="CentripetalCatmullRom"
       interpolator_beta="0.75"
       start_linecap_type="round"
       end_linecap_type="round"
       offset_points="21.4719,0.68421"
       linejoin_type="spiro"
       miter_limit="4"
       not_jump="true"
       sort_points="true"
       message="&lt;b&gt;Ctrl + click&lt;/b&gt; on existing node and move it" /><inkscape:path-effect
       effect="simplify"
       id="path-effect40"
       is_visible="true"
       lpeversion="1.3"
       threshold="0.6"
       steps="1"
       smooth_angles="0"
       helper_size="0"
       simplify_individual_paths="false"
       simplify_just_coalesce="false"
       step="1" /><inkscape:path-effect
       effect="powerstroke"
       id="path-effect39"
       is_visible="true"
       lpeversion="1.3"
       scale_width="1"
       interpolator_type="CentripetalCatmullRom"
       interpolator_beta="0.75"
       start_linecap_type="round"
       end_linecap_type="round"
       offset_points="2.8006069,0.68421"
       linejoin_type="spiro"
       miter_limit="4"
       not_jump="true"
       sort_points="true"
       message="&lt;b&gt;Ctrl + click&lt;/b&gt; on existing node and move it" /><inkscape:path-effect
       effect="simplify"
       id="path-effect38"
       is_visible="true"
       lpeversion="1.3"
       threshold="0.6"
       steps="1"
       smooth_angles="0"
       helper_size="0"
       simplify_individual_paths="false"
       simplify_just_coalesce="false"
       step="1" /><inkscape:path-effect
       effect="powerstroke"
       id="path-effect37"
       is_visible="true"
       lpeversion="1.3"
       scale_width="1"
       interpolator_type="CentripetalCatmullRom"
       interpolator_beta="0.75"
       start_linecap_type="round"
       end_linecap_type="round"
       offset_points="0.43430894,0.68421"
       linejoin_type="spiro"
       miter_limit="4"
       not_jump="true"
       sort_points="true"
       message="&lt;b&gt;Ctrl + click&lt;/b&gt; on existing node and move it" /><inkscape:path-effect
       effect="simplify"
       id="path-effect36"
       is_visible="true"
       lpeversion="1.3"
       threshold="0.6"
       steps="1"
       smooth_angles="0"
       helper_size="0"
       simplify_individual_paths="false"
       simplify_just_coalesce="false"
       step="1" /><inkscape:path-effect
       effect="powerstroke"
       id="path-effect35"
       is_visible="true"
       lpeversion="1.3"
       scale_width="1"
       interpolator_type="CentripetalCatmullRom"
       interpolator_beta="0.75"
       start_linecap_type="round"
       end_linecap_type="round"
       offset_points="2.4375394,0.91228"
       linejoin_type="spiro"
       miter_limit="4"
       not_jump="true"
       sort_points="true"
       message="&lt;b&gt;Ctrl + click&lt;/b&gt; on existing node and move it" /><inkscape:path-effect
       effect="simplify"
       id="path-effect34"
       is_visible="true"
       lpeversion="1.3"
       threshold="0.6"
       steps="1"
       smooth_angles="0"
       helper_size="0"
       simplify_individual_paths="false"
       simplify_just_coalesce="false"
       step="1" /><inkscape:path-effect
       effect="powerstroke"
       id="path-effect33"
       is_visible="true"
       lpeversion="1.3"
       scale_width="1"
       interpolator_type="CentripetalCatmullRom"
       interpolator_beta="0.75"
       start_linecap_type="round"
       end_linecap_type="round"
       offset_points="31.943241,0.68421"
       linejoin_type="spiro"
       miter_limit="4"
       not_jump="true"
       sort_points="true"
       message="&lt;b&gt;Ctrl + click&lt;/b&gt; on existing node and move it" /><inkscape:path-effect
       effect="simplify"
       id="path-effect32"
       is_visible="true"
       lpeversion="1.3"
       threshold="0.6"
       steps="1"
       smooth_angles="0"
       helper_size="0"
       simplify_individual_paths="false"
       simplify_just_coalesce="false"
       step="1" /><inkscape:path-effect
       effect="powerstroke"
       id="path-effect31"
       is_visible="true"
       lpeversion="1.3"
       scale_width="1"
       interpolator_type="CentripetalCatmullRom"
       interpolator_beta="0.75"
       start_linecap_type="round"
       end_linecap_type="round"
       offset_points="1.4879812,0.68421"
       linejoin_type="spiro"
       miter_limit="4"
       not_jump="true"
       sort_points="true"
       message="&lt;b&gt;Ctrl + click&lt;/b&gt; on existing node and move it" /><inkscape:path-effect
       effect="simplify"
       id="path-effect30"
       is_visible="true"
       lpeversion="1.3"
       threshold="0.6"
       steps="1"
       smooth_angles="0"
       helper_size="0"
       simplify_individual_paths="false"
       simplify_just_coalesce="false"
       step="1" /><inkscape:path-effect
       effect="powerstroke"
       id="path-effect29"
       is_visible="true"
       lpeversion="1.3"
       scale_width="1"
       interpolator_type="CentripetalCatmullRom"
       interpolator_beta="0.75"
       start_linecap_type="round"
       end_linecap_type="round"
       offset_points="36.964728,0.68421"
       linejoin_type="spiro"
       miter_limit="4"
       not_jump="true"
       sort_points="true"
       message="&lt;b&gt;Ctrl + click&lt;/b&gt; on existing node and move it" /><inkscape:path-effect
       effect="simplify"
       id="path-effect28"
       is_visible="true"
       lpeversion="1.3"
       threshold="0.6"
       steps="1"
       smooth_angles="0"
       helper_size="0"
       simplify_individual_paths="false"
       simplify_just_coalesce="false"
       step="1" /><inkscape:path-effect
       effect="powerstroke"
       id="path-effect27"
       is_visible="true"
       lpeversion="1.3"
       scale_width="1"
       interpolator_type="CentripetalCatmullRom"
       interpolator_beta="0.75"
       start_linecap_type="round"
       end_linecap_type="round"
       offset_points="1.9527434,0.68421"
       linejoin_type="spiro"
       miter_limit="4"
       not_jump="true"
       sort_points="true"
       message="&lt;b&gt;Ctrl + click&lt;/b&gt; on existing node and move it" /><inkscape:path-effect
       effect="simplify"
       id="path-effect26"
       is_visible="true"
       lpeversion="1.3"
       threshold="0.6"
       steps="1"
       smooth_angles="0"
       helper_size="0"
       simplify_individual_paths="false"
       simplify_just_coalesce="false"
       step="1" /><inkscape:path-effect
       effect="powerstroke"
       id="path-effect25"
       is_visible="true"
       lpeversion="1.3"
       scale_width="1"
       interpolator_type="CentripetalCatmullRom"
       interpolator_beta="0.75"
       start_linecap_type="round"
       end_linecap_type="round"
       offset_points="1.421933,0.821052"
       linejoin_type="spiro"
       miter_limit="4"
       not_jump="true"
       sort_points="true"
       message="&lt;b&gt;Ctrl + click&lt;/b&gt; on existing node and move it" /><inkscape:path-effect
       effect="simplify"
       id="path-effect24"
       is_visible="true"
       lpeversion="1.3"
       threshold="0.6"
       steps="1"
       smooth_angles="0"
       helper_size="0"
       simplify_individual_paths="false"
       simplify_just_coalesce="false"
       step="1" /><inkscape:path-effect
       effect="powerstroke"
       id="path-effect23"
       is_visible="true"
       lpeversion="1.3"
       scale_width="1"
       interpolator_type="CentripetalCatmullRom"
       interpolator_beta="0.75"
       start_linecap_type="round"
       end_linecap_type="round"
       offset_points="3.9230205,0.821052"
       linejoin_type="spiro"
       miter_limit="4"
       not_jump="true"
       sort_points="true"
       message="&lt;b&gt;Ctrl + click&lt;/b&gt; on existing node and move it" /><inkscape:path-effect
       effect="simplify"
       id="path-effect22"
       is_visible="true"
       lpeversion="1.3"
       threshold="0.6"
       steps="1"
       smooth_angles="0"
       helper_size="0"
       simplify_individual_paths="false"
       simplify_just_coalesce="false"
       step="1" /><inkscape:path-effect
       effect="powerstroke"
       id="path-effect21"
       is_visible="true"
       lpeversion="1.3"
       scale_width="1"
       interpolator_type="CentripetalCatmullRom"
       interpolator_beta="0.75"
       start_linecap_type="round"
       end_linecap_type="round"
       offset_points="32.717954,0.58057143"
       linejoin_type="spiro"
       miter_limit="4"
       not_jump="true"
       sort_points="true"
       message="&lt;b&gt;Ctrl + click&lt;/b&gt; on existing node and move it" /><inkscape:path-effect
       effect="simplify"
       id="path-effect20"
       is_visible="true"
       lpeversion="1.3"
       threshold="0.6"
       steps="1"
       smooth_angles="0"
       helper_size="0"
       simplify_individual_paths="false"
       simplify_just_coalesce="false"
       step="1" /><inkscape:path-effect
       effect="powerstroke"
       id="path-effect19"
       is_visible="true"
       lpeversion="1.3"
       scale_width="1"
       interpolator_type="CentripetalCatmullRom"
       interpolator_beta="0.75"
       start_linecap_type="round"
       end_linecap_type="round"
       offset_points="6.0065622,0.58057143"
       linejoin_type="spiro"
       miter_limit="4"
       not_jump="true"
       sort_points="true"
       message="&lt;b&gt;Ctrl + click&lt;/b&gt; on existing node and move it" /><inkscape:path-effect
       effect="simplify"
       id="path-effect18"
       is_visible="true"
       lpeversion="1.3"
       threshold="0.6"
       steps="1"
       smooth_angles="0"
       helper_size="0"
       simplify_individual_paths="false"
       simplify_just_coalesce="false"
       step="1" /><inkscape:path-effect
       effect="powerstroke"
       id="path-effect17"
       is_visible="true"
       lpeversion="1.3"
       scale_width="1"
       interpolator_type="CentripetalCatmullRom"
       interpolator_beta="0.75"
       start_linecap_type="round"
       end_linecap_type="round"
       offset_points="1.3422482,0.58057143"
       linejoin_type="spiro"
       miter_limit="4"
       not_jump="true"
       sort_points="true"
       message="&lt;b&gt;Ctrl + click&lt;/b&gt; on existing node and move it" /><inkscape:path-effect
       effect="simplify"
       id="path-effect16"
       is_visible="true"
       lpeversion="1.3"
       threshold="0.6"
       steps="1"
       smooth_angles="0"
       helper_size="0"
       simplify_individual_paths="false"
       simplify_just_coalesce="false"
       step="1" /><inkscape:path-effect
       effect="powerstroke"
       id="path-effect15"
       is_visible="true"
       lpeversion="1.3"
       scale_width="1"
       interpolator_type="CentripetalCatmullRom"
       interpolator_beta="0.75"
       start_linecap_type="round"
       end_linecap_type="round"
       offset_points="1.2185506,0.58057143"
       linejoin_type="spiro"
       miter_limit="4"
       not_jump="true"
       sort_points="true"
       message="&lt;b&gt;Ctrl + click&lt;/b&gt; on existing node and move it" /><inkscape:path-effect
       effect="simplify"
       id="path-effect14"
       is_visible="true"
       lpeversion="1.3"
       threshold="0.6"
       steps="1"
       smooth_angles="0"
       helper_size="0"
       simplify_individual_paths="false"
       simplify_just_coalesce="false"
       step="1" /><inkscape:path-effect
       effect="powerstroke"
       id="path-effect13"
       is_visible="true"
       lpeversion="1.3"
       scale_width="1"
       interpolator_type="CentripetalCatmullRom"
       interpolator_beta="0.75"
       start_linecap_type="round"
       end_linecap_type="round"
       offset_points="5.2432878,0.58057143"
       linejoin_type="spiro"
       miter_limit="4"
       not_jump="true"
       sort_points="true"
       message="&lt;b&gt;Ctrl + click&lt;/b&gt; on existing node and move it" /><inkscape:path-effect
       effect="simplify"
       id="path-effect12"
       is_visible="true"
       lpeversion="1.3"
       threshold="0.012"
       steps="1"
       smooth_angles="0"
       helper_size="0"
       simplify_individual_paths="false"
       simplify_just_coalesce="false"
       step="1" /><inkscape:path-effect
       effect="powerstroke"
       id="path-effect10"
       is_visible="true"
       lpeversion="1.3"
       scale_width="1"
       interpolator_type="CentripetalCatmullRom"
       interpolator_beta="0.75"
       start_linecap_type="round"
       end_linecap_type="round"
       offset_points="19.276446,1.1611429"
       linejoin_type="spiro"
       miter_limit="4"
       not_jump="true"
       sort_points="true"
       message="&lt;b&gt;Ctrl + click&lt;/b&gt; on existing node and move it" /><inkscape:path-effect
       effect="simplify"
       id="path-effect9"
       is_visible="true"
       lpeversion="1.3"
       threshold="0.012"
       steps="1"
       smooth_angles="0"
       helper_size="0"
       simplify_individual_paths="false"
       simplify_just_coalesce="false"
       step="1" /><inkscape:path-effect
       effect="powerstroke"
       id="path-effect8"
       is_visible="true"
       lpeversion="1.3"
       scale_width="1"
       interpolator_type="CentripetalCatmullRom"
       interpolator_beta="0.75"
       start_linecap_type="round"
       end_linecap_type="round"
       offset_points="46.435394,1.1611429"
       linejoin_type="spiro"
       miter_limit="4"
       not_jump="true"
       sort_points="true"
       message="&lt;b&gt;Ctrl + click&lt;/b&gt; on existing node and move it" /><inkscape:path-effect
       effect="simplify"
       id="path-effect7"
       is_visible="true"
       lpeversion="1.3"
       threshold="0.012"
       steps="1"
       smooth_angles="0"
       helper_size="0"
       simplify_individual_paths="false"
       simplify_just_coalesce="false"
       step="1" /><linearGradient
       id="linearGradient30"
       inkscape:collect="always"><stop
         style="stop-color:#f9f9f9;stop-opacity:0.25;"
         offset="0"
         id="stop30" /><stop
         style="stop-color:#f9f9f9;stop-opacity:0;"
         offset="1"
         id="stop31" /></linearGradient><linearGradient
       inkscape:collect="always"
       xlink:href="#linearGradient30"
       id="linearGradient2"
       gradientUnits="userSpaceOnUse"
       gradientTransform="translate(4.3179728,-1.8841064)"
       x1="55.832174"
       y1="33.8447"
       x2="58.953058"
       y2="33.8447" /><linearGradient
       inkscape:collect="always"
       xlink:href="#linearGradient30"
       id="linearGradient41"
       gradientUnits="userSpaceOnUse"
       gradientTransform="translate(4.3179728,-1.8841064)"
       x1="55.832174"
       y1="33.8447"
       x2="58.953058"
       y2="33.8447" /></defs><g
     inkscape:label="Layer 1"
     inkscape:groupmode="layer"
     id="layer1"><g
       inkscape:label="Layer 1"
       id="layer1-5"
       transform="translate(-7.0823075,-7.7013409)" /><g
       inkscape:groupmode="layer"
       id="layer2"
       inkscape:label="Layer 2"
       style="mix-blend-mode:difference" /><g
       id="g41"
       transform="matrix(1.108945,0,0,1.108945,-0.90181245,-3.0844115)"><g
         id="g18"
         style="fill:#ffd51b;fill-opacity:1;stroke:#000000;stroke-width:0.79375;stroke-dasharray:none;stroke-opacity:1"
         transform="rotate(-25,47.322574,17.967999)"><path
           style="fill:#ffd51b;fill-opacity:1;stroke:#000000;stroke-width:0.79375;stroke-dasharray:none;stroke-opacity:1"
           d="m 32.843339,50.23988 c 0,0 -27.0238017,-0.982726 -26.8118875,-25.687813 0.023581,-2.749171 0.7018294,-0.383007 0.7018294,-0.383007 0,0 2.6215938,12.97438 25.4066721,8.906198"
           id="path10"
           sodipodi:nodetypes="cscc" /><path
           style="fill:#000000;fill-opacity:1;stroke:#000000;stroke-width:0.79375;stroke-dasharray:none;stroke-opacity:1"
           d="M 6.6038795,25.128107 C 3.1883143,21.730495 6.2142104,15.708339 6.2142104,15.708339 l 1.2107039,3.119065 c 0,0 1.0898948,3.348643 -0.8210348,6.300703 z"
           id="path11" /><path
           style="fill:#000000;fill-opacity:1;stroke:#000000;stroke-width:0.79375;stroke-dasharray:none;stroke-opacity:1"
           d="m 6.6038795,25.128107 c -4.8176434,0.0127 -6.93631894,-6.385244 -6.93631894,-6.385244 l 3.06160904,1.349415 c 0,0 3.1385199,1.597176 3.8747099,5.035829 z"
           id="path11-1" /></g><path
         style="fill:#ffd51b;fill-opacity:1;stroke:#000000;stroke-width:0.79375;stroke-dasharray:none;stroke-opacity:1"
         id="path2"
         sodipodi:type="arc"
         sodipodi:cx="50.31086"
         sodipodi:cy="46.563717"
         sodipodi:rx="15.521008"
         sodipodi:ry="15.521008"
         sodipodi:start="0.047171741"
         sodipodi:end="5.7464643"
         sodipodi:arc-type="slice"
         d="M 65.814602,47.295598 A 15.521008,15.521008 0 0 1 51.841864,62.00903 15.521008,15.521008 0 0 1 35.252503,50.325042 15.521008,15.521008 0 0 1 44.399219,32.212613 15.521008,15.521008 0 0 1 63.649457,38.627503 L 50.31086,46.563717 Z"
         transform="translate(-7.0823074,-7.7013409)" /><g
         id="g7-2-7"
         transform="matrix(2.0382253,0,0,2.0382253,-78.651941,-35.734702)"><circle
           style="fill:#c8c8c8;fill-opacity:1;stroke-width:2.11667"
           id="path7-3-0-3"
           cx="61.882706"
           cy="31.960596"
           r="1.9060705" /><circle
           style="fill:#1a1a1a;stroke-width:3.46195"
           id="path12-4-2-6"
           cx="61.882706"
           cy="31.960596"
           r="1.6350923" /><circle
           style="fill:url(#linearGradient2);stroke-width:1.73285"
           id="path7-6-3-4-3-1"
           cx="61.71059"
           cy="31.960596"
           r="1.560442" /><circle
           style="fill:#f9f9f9;stroke-width:0.857059"
           id="path7-6-4-7-2"
           cx="61.486858"
           cy="31.511732"
           r="0.7717852" /><circle
           style="fill:#f9f9f9;stroke-width:0.417474"
           id="path7-6-4-1-5-9"
           cx="62.792"
           cy="32.283516"
           r="0.37593734" /></g><g
         id="g7-2-7-0"
         transform="matrix(2.0382253,0,0,2.0382253,-87.658334,-31.276229)"><circle
           style="fill:#c8c8c8;fill-opacity:1;stroke-width:2.11667"
           id="path7-3-0-3-6"
           cx="61.882706"
           cy="31.960596"
           r="1.9060705" /><circle
           style="fill:#1a1a1a;stroke-width:3.46195"
           id="path12-4-2-6-1"
           cx="61.882706"
           cy="31.960596"
           r="1.6350923" /><circle
           style="fill:url(#linearGradient41);stroke-width:1.73285"
           id="path7-6-3-4-3-1-5"
           cx="61.71059"
           cy="31.960596"
           r="1.560442" /><circle
           style="fill:#f9f9f9;stroke-width:0.857059"
           id="path7-6-4-7-2-5"
           cx="61.486858"
           cy="31.511732"
           r="0.7717852" /><circle
           style="fill:#f9f9f9;stroke-width:0.417474"
           id="path7-6-4-1-5-9-4"
           cx="62.792"
           cy="32.283516"
           r="0.37593734" /></g><g
         id="g18-6-0"
         style="fill:#ffffff;fill-opacity:1;stroke:#000000;stroke-width:0.79375;stroke-dasharray:none;stroke-opacity:1"
         transform="rotate(75,45.193725,30.776276)"><path
           style="fill:#ffffff;fill-opacity:1;stroke:#000000;stroke-width:0.79375;stroke-dasharray:none;stroke-opacity:1"
           d="M 27.923771,61.302652 C 27.893617,49.859763 43.090032,44.827475 43.090032,44.827475 l -3.205137,7.271947 c 0,0 -3.793618,7.454627 -11.961124,9.20323 z"
           id="path11-0-2-9" /></g><g
         id="g18-6-0-6"
         style="fill:#ffffff;fill-opacity:1;stroke:#000000;stroke-width:0.79375;stroke-dasharray:none;stroke-opacity:1"
         transform="rotate(105,44.12754,33.740275)"><path
           style="fill:#ffffff;fill-opacity:1;stroke:#000000;stroke-width:0.79375;stroke-dasharray:none;stroke-opacity:1"
           d="M 27.923771,61.302652 C 27.893617,49.859763 43.090032,44.827475 43.090032,44.827475 l -3.205137,7.271947 c 0,0 -3.793618,7.454627 -11.961124,9.20323 z"
           id="path11-0-2-9-2" /></g><path
         style="fill:#ffd51b;fill-opacity:1;stroke:none;stroke-width:0.79375;stroke-dasharray:none;stroke-opacity:1"
         d="m 27.308862,44.714418 4.203243,-1.126255 14.291258,9.720379 c -4.334481,2.48094 -8.460764,1.472396 -8.460764,1.472396 l -9.182857,-7.124536 z"
         id="path6"
         sodipodi:nodetypes="cccccc" /><path
         d="m 16.034235,34.035494 c 0.162186,0.396681 0.355191,0.824984 0.734588,1.590112 0.213548,0.430781 0.536,1.066445 0.783003,1.629643 0.01153,0.02628 0.02316,0.053 0.03486,0.08011 0.01355,0.03083 0.02258,0.05418 0.02291,0.05519 0.0089,0.02728 0.01732,0.05945 0.02823,0.113425 0.01301,0.06435 0.02348,0.12549 0.03649,0.189842 0.01528,0.07582 0.039,0.182108 0.0784,0.295049 0.09959,0.294213 0.222353,0.590336 0.362325,0.887588 0.155437,0.329308 0.330552,0.656641 0.525592,0.981783 0.06836,0.114355 0.136414,0.220901 0.197432,0.320361 0.291389,0.472847 0.611252,1.019862 0.944483,1.522104 0.06845,0.102933 0.139769,0.208198 0.214569,0.313579 0.118118,0.16521 0.242608,0.318558 0.351212,0.452769 0.113489,0.140248 0.210984,0.261237 0.299124,0.385082 0.04993,0.07005 0.09471,0.13883 0.134615,0.207134 0.08492,0.144368 0.167099,0.290565 0.252869,0.440245 0.181509,0.317337 0.361807,0.62806 0.556857,0.934995 0.109527,0.171657 0.2218,0.340225 0.346386,0.504851 0.07554,0.09907 0.159498,0.203129 0.259847,0.303627 0.06297,0.06213 0.149739,0.14237 0.266135,0.210826 0.05285,0.03058 0.102704,0.05413 0.154714,0.07294 a 0.68421,0.68421 90 0 0 0.465506,-1.286808 c 0.02911,0.01053 0.05246,0.02214 0.06914,0.03178 0.03141,0.01846 0.03841,0.02955 0.0091,6.64e-4 -0.03429,-0.03437 -0.07602,-0.08372 -0.134807,-0.160806 -0.09152,-0.120944 -0.181604,-0.255092 -0.281771,-0.412077 -0.1762,-0.277275 -0.343238,-0.564623 -0.523554,-0.879874 -0.07839,-0.136803 -0.170909,-0.301091 -0.259923,-0.452419 -0.06191,-0.105978 -0.129588,-0.209408 -0.200508,-0.308916 -0.116316,-0.163435 -0.240404,-0.316624 -0.349985,-0.452042 -0.113381,-0.140114 -0.211532,-0.261582 -0.300454,-0.385951 -0.06245,-0.08799 -0.125391,-0.180752 -0.189218,-0.276737 -0.316441,-0.476935 -0.603639,-0.970515 -0.918664,-1.481714 -0.06898,-0.112446 -0.13375,-0.214041 -0.189111,-0.306649 -0.173031,-0.288455 -0.326643,-0.575848 -0.461845,-0.862286 -0.121985,-0.259055 -0.223973,-0.506631 -0.305977,-0.748813 -0.01127,-0.0324 -0.02055,-0.0685 -0.0312,-0.121328 -0.01264,-0.0624 -0.024,-0.1282 -0.0365,-0.189906 -0.0162,-0.08015 -0.0369,-0.170006 -0.06784,-0.264419 -0.02536,-0.07908 -0.05894,-0.154356 -0.07021,-0.179949 -0.01085,-0.02517 -0.02353,-0.05429 -0.03606,-0.08287 -0.263718,-0.601312 -0.607202,-1.278398 -0.81019,-1.687875 -0.369844,-0.745863 -0.547901,-1.142916 -0.693954,-1.50014 a 0.68421,0.68421 90 0 0 -1.266642,0.517874 z"
         id="path-1"
         inkscape:path-effect="#path-effect26;#path-effect27"
         inkscape:original-d="m 16.667556,33.776557 c 0.472044,1.153886 1.080851,2.199067 1.564348,3.327229 0.08741,0.203946 0.092,0.436394 0.161779,0.644684 0.215278,0.642602 0.569487,1.338239 0.930806,1.916349 0.393814,0.630102 0.779422,1.309321 1.205773,1.918394 0.262591,0.37513 0.586811,0.704335 0.821052,1.094736 0.293504,0.489173 1.131392,2.072271 1.500311,2.205401"
         style="fill:#1a1a1a;fill-opacity:1;fill-rule:nonzero;stroke:none;stroke-width:3;stroke-dasharray:none;stroke-opacity:1"
         transform="translate(11.936696,10.520941)" /><path
         d="m 21.932638,44.001001 c -0.04544,0.0023 -0.08993,0.0022 -0.174004,0.0017 -0.194775,-0.0018 -0.398141,-0.0082 -0.629859,-0.01761 -0.301332,-0.01263 -0.622126,-0.02995 -0.948576,-0.05594 -0.171958,-0.014 -0.346384,-0.02995 -0.516119,-0.05316 -0.07131,-0.01007 -0.125984,-0.01883 -0.172593,-0.02965 -0.0286,-0.0077 -0.01592,-0.0042 -0.01,-0.0022 0.01451,0.0049 0.06224,0.02186 0.118253,0.06118 0.01246,0.0087 0.02463,0.01791 0.03648,0.02747 -0.05293,-0.0427 -0.109222,-0.09707 -0.182756,-0.174295 -0.12481,-0.132096 -0.247864,-0.278808 -0.37859,-0.442865 -0.215532,-0.271543 -0.424352,-0.558312 -0.634014,-0.861155 -0.283397,-0.410254 -0.557738,-0.836055 -0.821237,-1.276499 -0.212961,-0.35673 -0.417849,-0.720905 -0.605118,-1.093254 -0.116738,-0.233003 -0.224565,-0.464178 -0.31545,-0.696946 -0.05335,-0.137732 -0.09614,-0.263133 -0.124969,-0.382953 -0.01062,-0.04299 -0.01876,-0.0908 -0.02726,-0.158614 -0.04342,-0.333744 -0.05828,-0.669811 -0.07553,-1.047721 -0.01523,-0.334568 -0.03258,-0.70296 -0.07918,-1.072923 -0.0074,-0.06616 -0.01335,-0.140985 -0.0213,-0.234175 -0.02651,-0.322295 -0.04984,-0.648303 -0.07217,-0.978433 -0.02275,-0.340977 -0.04404,-0.680774 -0.06018,-1.019535 -0.0064,-0.140387 -0.01203,-0.270507 -0.01331,-0.39829 -1.03e-4,-0.04197 6.74e-4,-0.06639 8.33e-4,-0.06826 -7.8e-5,0.001 -0.0015,0.01825 -0.0053,0.04122 -0.0038,0.02277 -0.0115,0.06095 -0.02806,0.106837 -0.01668,0.0462 -0.04552,0.109135 -0.09593,0.174397 -0.05238,0.06781 -0.123063,0.131437 -0.212482,0.178532 -0.0528,0.02781 -0.106083,0.05531 -0.162648,0.07434 -0.05656,0.01903 -0.116267,0.0294 -0.175924,0.02774 -0.05966,-0.0017 -0.11869,-0.01534 -0.174106,-0.0375 -0.05542,-0.02215 -0.10708,-0.05258 -0.158252,-0.08329 0.0018,0.0011 0.0035,0.0021 0.0053,0.0032 l -0.2697,-0.301144 c -0.02114,-0.04603 -0.03332,-0.08751 -0.04056,-0.119709 -0.0071,-0.03151 -0.0099,-0.05644 -0.01115,-0.0694 -0.0022,-0.02288 -0.0024,-0.02114 -2.39e-4,0.0057 2.8e-5,-0.0046 0.0012,0.153354 0.0121,0.255561 0.01499,0.148595 0.06497,0.264196 0.08784,0.315255 0.03986,0.08842 0.08867,0.168914 0.106127,0.198853 0.02247,0.03853 0.02701,0.05128 0.02161,0.03726 0.08978,0.233628 0.160764,0.482789 0.23537,0.758002 0.07568,0.279277 0.156393,0.593154 0.25934,0.90079 0.239583,0.724638 0.43393,1.487336 0.665083,2.259088 0.162146,0.541444 0.342918,1.087655 0.570895,1.622236 0.109717,0.257187 0.229535,0.51018 0.3623,0.756956 0.148417,0.272707 0.31959,0.51513 0.48776,0.730891 0.245397,0.314262 0.512926,0.607038 0.750983,0.868335 0.151998,0.166857 0.289537,0.317486 0.422752,0.472807 0.0045,0.0052 0.0091,0.01043 0.01374,0.01553 0.04125,0.04524 0.08869,0.09196 0.108091,0.111532 0.157579,0.157028 0.312556,0.305062 0.464421,0.44635 2.2e-5,2.1e-5 0.017,0.0158 0.01702,0.01582 0.180914,0.167479 0.372523,0.339561 0.574826,0.506288 0.10853,0.08898 0.23228,0.187269 0.368433,0.279941 0.06503,0.04372 0.161272,0.1069 0.276746,0.159817 0.0059,0.0027 0.01184,0.0053 0.01782,0.0079 0.0074,0.0031 0.07145,0.03174 0.144341,0.05166 0.04053,0.01107 0.09277,0.02231 0.153831,0.02737 0.06174,0.0051 0.13277,0.0039 0.209657,-0.01009 0.121748,-0.02357 0.222391,-0.07129 0.305283,-0.133309 0.08029,-0.06007 0.13589,-0.126832 0.174925,-0.186178 0.0382,-0.05807 0.06316,-0.113491 0.07969,-0.158625 0.01669,-0.04556 0.02746,-0.08791 0.03452,-0.124402 0.0199,-0.108375 0.01769,-0.196967 0.01058,-0.265805 -0.0068,-0.0661 -0.01937,-0.121693 -0.02712,-0.154022 -0.03492,-0.138192 -0.08255,-0.249689 -0.117652,-0.327447 -0.07176,-0.156794 -0.150839,-0.297748 -0.223199,-0.421279 -0.170602,-0.289601 -0.356942,-0.566183 -0.525012,-0.819261 -0.04954,-0.07506 -0.08859,-0.133544 -0.124863,-0.193019 -0.0335,-0.05728 -0.07315,-0.125639 -0.114201,-0.192611 -0.229971,-0.377891 -0.486225,-0.732239 -0.739399,-1.06459 -0.322232,-0.42311 -0.64323,-0.81896 -0.927999,-1.213942 -0.06319,-0.08612 -0.127393,-0.155579 -0.163198,-0.194699 -0.107258,-0.116321 -0.201793,-0.210118 -0.276959,-0.292236 -0.04119,-0.04625 -0.02516,-0.03007 -0.01213,-0.0096 0.0033,0.0051 0.0065,0.01031 0.0096,0.01553 -0.08564,-0.142733 -0.159134,-0.304824 -0.238058,-0.494673 -0.0918,-0.220742 -0.1993,-0.502678 -0.331886,-0.765916 -0.03833,-0.07669 -0.07941,-0.15032 -0.11306,-0.210101 -0.221193,-0.394729 -0.406884,-0.701675 -0.581442,-1.051707 -0.105267,-0.211151 -0.191746,-0.411212 -0.257401,-0.607872 -0.03261,-0.09366 -0.07014,-0.190157 -0.09178,-0.247785 -0.08573,-0.226768 -0.155555,-0.421258 -0.21012,-0.613922 -0.02991,-0.106713 -0.04909,-0.190773 -0.05958,-0.26554 -0.0063,-0.04657 -0.0048,-0.06586 -0.0053,-0.06069 -6.22e-4,0.0066 -0.0017,0.02041 -0.0086,0.04585 -0.0074,0.02727 -0.02175,0.06788 -0.04969,0.113371 -0.03796,0.06125 -0.08907,0.116608 -0.155058,0.16109 a 0.68421,0.68421 90 0 0 -0.764906,-1.134676 c -0.09921,0.06688 -0.182137,0.154243 -0.244632,0.255059 -0.05397,0.08788 -0.08643,0.172889 -0.106863,0.24858 -0.01885,0.06983 -0.02784,0.133213 -0.0327,0.183138 -0.01326,0.147288 -0.0014,0.275384 0.01208,0.374936 0.02289,0.163263 0.05958,0.312686 0.09806,0.449987 0.07166,0.253049 0.158641,0.492325 0.246688,0.72522 0.03081,0.08208 0.05465,0.142434 0.07732,0.207417 0.08835,0.264839 0.20271,0.525548 0.327798,0.776459 0.194099,0.389215 0.417186,0.761839 0.612965,1.111213 0.03333,0.05921 0.06006,0.107626 0.08309,0.153688 0.103832,0.206157 0.177352,0.403298 0.291418,0.677579 0.08486,0.204117 0.189232,0.44174 0.328198,0.673348 0.0031,0.0052 0.0063,0.0104 0.0096,0.01553 0.06101,0.0958 0.137795,0.177075 0.151103,0.19199 0.110536,0.120841 0.206748,0.216232 0.284476,0.300523 0.04027,0.044 0.05501,0.06121 0.06437,0.07396 0.311737,0.432431 0.640944,0.837586 0.945937,1.23806 0.240519,0.315738 0.464586,0.627299 0.660189,0.948711 0.03403,0.05552 0.06509,0.109196 0.103943,0.175569 0.0019,0.0032 0.0037,0.0063 0.0056,0.0094 0.05388,0.08874 0.111428,0.174784 0.156311,0.24278 0.177542,0.267344 0.339492,0.508047 0.486107,0.756926 0.06322,0.107929 0.11544,0.202888 0.157371,0.29449 0.02371,0.05254 0.03178,0.07688 0.03476,0.08865 -1.86e-4,-5.51e-4 -0.0028,-0.0078 -0.0054,-0.03286 -0.0026,-0.02513 -0.0049,-0.06982 0.0059,-0.128224 0.0059,-0.03064 0.01325,-0.06 0.02531,-0.09294 0.0119,-0.03248 0.03101,-0.07562 0.06194,-0.122644 0.03175,-0.04827 0.07864,-0.1052 0.14859,-0.157532 0.07253,-0.05426 0.161167,-0.09634 0.261487,-0.115796 0.06399,-0.01171 0.114675,-0.0123 0.156264,-0.0089 0.04086,0.0034 0.07309,0.01066 0.0939,0.01635 0.0431,0.01178 0.0501,0.01741 0.02943,0.0086 l 0.01782,0.0079 c -0.0095,-0.0043 -0.02959,-0.01529 -0.08019,-0.0493 -0.0824,-0.0561 -0.169278,-0.124161 -0.266122,-0.203558 -0.172628,-0.142273 -0.342923,-0.294835 -0.51342,-0.45267 7.6e-4,7.04e-4 -0.01528,-0.01421 -0.01527,-0.01419 -0.142922,-0.132969 -0.286324,-0.270012 -0.427754,-0.410931 -0.03071,-0.03099 -0.04601,-0.04597 -0.05995,-0.06087 C 19.763215,42.133119 19.613754,41.96956 19.467958,41.809512 19.223382,41.54106 18.991825,41.286757 18.784315,41.021015 18.643754,40.840675 18.52021,40.662618 18.421138,40.480591 18.31201,40.277733 18.209781,40.062452 18.114034,39.83801 17.9146,39.37036 17.750645,38.878693 17.595326,38.360048 c -0.220287,-0.735475 -0.416934,-1.510292 -0.677507,-2.298399 -0.08751,-0.261508 -0.154664,-0.522864 -0.237039,-0.826848 -0.07516,-0.277244 -0.161609,-0.585963 -0.279051,-0.891581 -0.04033,-0.104604 -0.09075,-0.190735 -0.116552,-0.234992 -0.02876,-0.04932 -0.04133,-0.07322 -0.0401,-0.0705 -0.0025,-0.0057 0.01822,0.02871 0.02593,0.112772 l -0.0015,-0.01494 c -9.51e-4,-0.0084 -9.07e-4,-0.0657 -0.0054,-0.173077 -3.99e-4,-0.0095 -9.96e-4,-0.01903 -0.0018,-0.02853 0.002,0.02359 0.002,0.0095 -0.0027,-0.04043 -0.0023,-0.02403 -0.0066,-0.05994 -0.01613,-0.102205 -0.0097,-0.04294 -0.02516,-0.09494 -0.05095,-0.151116 -0.02874,-0.06259 -0.06034,-0.124851 -0.106283,-0.176156 -0.04595,-0.0513 -0.104363,-0.08955 -0.163417,-0.124988 -0.0018,-0.0011 -0.0035,-0.0021 -0.0053,-0.0032 -0.05117,-0.03071 -0.102836,-0.06113 -0.158252,-0.08329 -0.05541,-0.02215 -0.114448,-0.03583 -0.174105,-0.0375 -0.05966,-0.0017 -0.119361,0.0087 -0.175925,0.02773 -0.05656,0.01903 -0.109844,0.04653 -0.162648,0.07434 -0.09776,0.05149 -0.175085,0.120996 -0.232778,0.195683 -0.05573,0.07214 -0.08855,0.142951 -0.108259,0.197544 -0.01959,0.05428 -0.02937,0.101363 -0.03465,0.133055 -0.0053,0.0319 -0.0076,0.05806 -0.0086,0.07039 -0.0066,0.07756 -0.0056,0.154889 -0.0055,0.190197 0.0016,0.160224 0.0084,0.313189 0.01476,0.453126 0.01682,0.353169 0.03879,0.703075 0.06177,1.047576 0.02258,0.333924 0.04642,0.667271 0.07387,1.000994 0.0072,0.08464 0.01511,0.183306 0.02615,0.281686 0.03989,0.317184 0.05549,0.633232 0.07097,0.973443 0.01665,0.364942 0.03335,0.760792 0.08515,1.158828 0.01095,0.08739 0.02701,0.195475 0.05522,0.309528 0.04807,0.19988 0.114883,0.389026 0.179026,0.554622 0.112547,0.288252 0.240412,0.560534 0.367833,0.81486 0.20649,0.410568 0.428489,0.804487 0.653461,1.181338 0.279178,0.466651 0.569665,0.917533 0.870376,1.35285 0.221613,0.320106 0.448521,0.632232 0.688501,0.934575 0.143158,0.17966 0.292975,0.35948 0.456788,0.532847 0.08989,0.09441 0.194258,0.199106 0.316418,0.297646 0.01185,0.0096 0.02402,0.01872 0.03648,0.02747 0.09077,0.06371 0.177011,0.09736 0.230602,0.115438 0.05785,0.01951 0.0915,0.02686 0.100545,0.02931 0.0059,0.0016 0.0118,0.0031 0.01772,0.0045 0.11826,0.02858 0.232071,0.04525 0.313315,0.05672 0.210783,0.02883 0.415297,0.04717 0.594615,0.06177 0.349813,0.02785 0.68861,0.04606 1.001996,0.05919 0.239377,0.0097 0.458485,0.01667 0.676438,0.01873 0.07991,3.99e-4 0.162499,0.0011 0.251847,-0.0034 a 0.68421,0.68421 90 0 0 -0.06803,-1.366728 z"
         id="path-1-7"
         inkscape:path-effect="#path-effect28;#path-effect29"
         inkscape:original-d="m 21.966655,44.684365 c -0.35024,0.02005 -2.57035,-0.06703 -2.759972,-0.218948 -0.848602,-0.679855 -3.148964,-4.202311 -3.328301,-5.45767 -0.103341,-0.723391 -0.07296,-1.459488 -0.16421,-2.189472 -0.03585,-0.286824 -0.215174,-2.783171 -0.16421,-2.877958 0.05108,-0.09501 0.0169,0.216884 0.04888,0.319911 0.03628,0.116896 0.120273,0.214184 0.16421,0.328421 0.206256,0.536266 0.318325,1.124977 0.499273,1.670067 0.501814,1.511673 0.790202,3.107348 1.544363,4.523894 0.38001,0.713775 1.068484,1.365306 1.591791,1.97583 0.06893,0.08042 1.587849,1.58411 1.73651,1.364552 0.16037,-0.236851 -0.742076,-1.452289 -0.921131,-1.763094 -0.504312,-0.87539 -1.152945,-1.590986 -1.735268,-2.398299 -0.101476,-0.140684 -0.415889,-0.431631 -0.474383,-0.529121 -0.268788,-0.447981 -0.404394,-0.968738 -0.657009,-1.423434 -0.335466,-0.603826 -0.709052,-1.192208 -0.924919,-1.83566 -0.09112,-0.271602 -0.607545,-1.460511 -0.315739,-1.658167"
         style="fill:#1a1a1a;fill-opacity:1;fill-rule:nonzero;stroke:none;stroke-width:3;stroke-dasharray:none;stroke-opacity:1"
         transform="translate(11.936696,10.520941)" /><path
         d="m 13.686245,34.104934 c 0.0086,0.201572 0.03349,0.556148 0.128764,1.02242 0.03519,0.172506 0.07821,0.352251 0.130209,0.541945 0.04391,0.160168 0.0976,0.339849 0.165834,0.547311 0.164179,0.499319 0.304624,0.848321 0.516291,1.428093 0.05688,0.155857 0.117117,0.324685 0.174205,0.496254 -0.0032,-0.0097 -0.0032,-0.01247 -0.0031,-0.01138 4.81e-4,0.0067 0.001,0.0295 0.0011,0.0717 4.5e-5,0.03797 -4e-6,0.107403 0.0074,0.183146 0.009,0.107625 0.03547,0.20691 0.05231,0.266044 0.03998,0.142374 0.08943,0.274807 0.133532,0.38454 0.0826,0.204658 0.173721,0.3949 0.246826,0.54298 0.0147,0.02975 0.02765,0.0557 0.03563,0.07167 a 0.68421,0.68421 90 0 0 1.223948,-0.611984 c -0.0075,-0.015 -0.01938,-0.03881 -0.03263,-0.06563 -0.06807,-0.137873 -0.141426,-0.292146 -0.204445,-0.448281 -0.03439,-0.08557 -0.06408,-0.167318 -0.08608,-0.245646 -0.01029,-0.03615 -0.0077,-0.03443 -0.0063,-0.01778 -6.59e-4,-0.0074 -0.0017,-0.02437 -0.0017,-0.06069 -3.7e-5,-0.03106 5.04e-4,-0.09747 -0.0045,-0.166095 -0.0072,-0.105977 -0.02763,-0.215304 -0.06259,-0.321877 -0.06384,-0.191879 -0.129026,-0.374359 -0.188079,-0.536176 -0.225167,-0.616752 -0.346734,-0.914704 -0.501825,-1.386386 -0.06144,-0.186781 -0.108458,-0.344514 -0.146031,-0.481581 -0.04457,-0.162601 -0.08041,-0.312878 -0.109183,-0.453922 -0.077,-0.376846 -0.09594,-0.656034 -0.102333,-0.806683 a 0.68421,0.68421 90 0 0 -1.36719,0.05801 z"
         id="path-1-8"
         inkscape:path-effect="#path-effect30;#path-effect31"
         inkscape:original-d="m 14.36984,34.075929 c 0.05883,1.378223 0.663736,2.597397 1.079461,3.844572 0.06323,0.189692 0.01026,0.314727 0.05474,0.492631 0.0752,0.300786 0.25498,0.674171 0.383158,0.930526"
         style="fill:#1a1a1a;fill-opacity:1;fill-rule:nonzero;stroke:none;stroke-width:3;stroke-dasharray:none;stroke-opacity:1"
         transform="translate(11.936696,10.520941)" /><path
         d="m 9.7119305,34.854318 c 0.065773,0.139813 0.1267517,0.311687 0.1758374,0.528275 0.048636,0.214629 0.081268,0.449332 0.1061643,0.733081 0.036997,0.42221 0.048222,0.819112 0.085226,1.241399 0.01302,0.146652 0.03031,0.304952 0.05463,0.468829 0.0763,0.527907 0.175758,1.085334 0.312143,1.650014 0.110748,0.459352 0.247171,0.927983 0.414065,1.399047 0.04044,0.11422 0.08329,0.230449 0.128658,0.3484 0.0027,0.007 0.0055,0.01386 0.0084,0.02073 0.03423,0.08099 0.08064,0.160675 0.08911,0.176056 0.06574,0.116514 0.129537,0.223299 0.189947,0.324777 0.148753,0.249292 0.298419,0.495646 0.441536,0.741257 0.05183,0.08937 0.09884,0.171054 0.141517,0.251703 0.01758,0.03386 0.0247,0.05031 0.02161,0.04247 -0.0027,-0.0067 -0.0052,-0.01352 -0.0076,-0.02034 0.0048,0.01347 0.0017,0.007 -0.0066,-0.02089 -0.0077,-0.02572 -0.02201,-0.07984 -0.02507,-0.151007 -0.0023,-0.05325 -0.003,-0.106983 0.0071,-0.159324 0.01005,-0.05234 0.03061,-0.101992 0.05246,-0.150604 -9.21e-4,0.002 -0.0018,0.0041 -0.0028,0.0062 l 0.395521,-0.364402 c 0.06454,-0.02287 0.125794,-0.03258 0.179098,-0.03486 0.05215,-0.0022 0.09552,0.0027 0.126601,0.0081 0.06332,0.01105 0.08743,0.02316 0.08429,0.02198 l 0.0168,0.0066 c 0.02486,0.01013 0.03309,0.01866 -0.0069,-0.0084 -0.04219,-0.02909 -0.09175,-0.06818 -0.156126,-0.121058 -0.119029,-0.09808 -0.247707,-0.212791 -0.39315,-0.333434 -0.0558,-0.04601 -0.127256,-0.104325 -0.207757,-0.16048 -0.06667,-0.04802 -0.138218,-0.08596 -0.1895,-0.111262 -0.115798,-0.05921 -0.20441,-0.104167 -0.288991,-0.153917 -0.07417,-0.04372 -0.121289,-0.07848 -0.152885,-0.108165 -0.02404,-0.02249 -0.04368,-0.04668 -0.05931,-0.07205 -0.02519,-0.04072 -0.0499,-0.0967 -0.07292,-0.174925 -0.0056,-0.01894 -0.01558,-0.06043 -0.03407,-0.12354 -0.04035,-0.139723 -0.08703,-0.274562 -0.132303,-0.397339 -0.05035,-0.135685 -0.10385,-0.269708 -0.163594,-0.402695 -0.02107,-0.04699 -0.04245,-0.09152 -0.06208,-0.13128 l 0.0097,0.02049 c 0.02,0.04411 0.01834,0.05654 0.01511,0.03803 -0.0044,-0.0261 -0.0076,-0.06661 -0.0095,-0.128196 -0.0029,-0.106793 0.001,-0.221336 0.0067,-0.338847 0.01173,-0.235465 0.03184,-0.471092 0.04605,-0.699708 9.24e-4,-0.01486 0.0018,-0.02976 0.0027,-0.04469 0.0062,-0.109539 0.01227,-0.229583 0.01154,-0.354669 -6.02e-4,-0.06815 -0.0031,-0.154034 -0.01585,-0.248003 -0.04193,-0.338636 -0.06887,-0.657097 -0.07221,-0.96442 -0.0026,-0.254464 0.01126,-0.483981 0.04389,-0.696138 0.03192,-0.2069 0.08002,-0.383125 0.141498,-0.534228 0.0604,-0.148647 0.132145,-0.267 0.204628,-0.359368 0.03798,-0.04847 0.0733,-0.08643 0.101145,-0.114266 a 0.68421,0.68421 90 0 0 -0.967558,-0.96768 c -0.05875,0.05875 -0.132333,0.137909 -0.210394,0.237517 -0.1523548,0.194153 -0.287943,0.423779 -0.3954666,0.688387 -0.1074866,0.264207 -0.180712,0.545696 -0.2263221,0.841315 -0.046301,0.301094 -0.062959,0.606795 -0.05976,0.918907 0.00409,0.376169 0.036813,0.749167 0.083579,1.126418 0.00241,0.01804 0.00405,0.03758 0.00444,0.08167 4.526e-4,0.07729 -0.00334,0.161115 -0.00927,0.265183 -7.131e-4,0.01202 -0.00154,0.02557 -0.00238,0.03918 -0.013012,0.209355 -0.033552,0.446768 -0.047025,0.717254 -0.00616,0.126335 -0.012248,0.282952 -0.00783,0.445665 0.00254,0.08334 0.00798,0.197238 0.028629,0.319946 0.010816,0.06201 0.032358,0.174557 0.087283,0.295722 0.00312,0.0069 0.00635,0.01371 0.0097,0.02049 0.014807,0.02998 0.028347,0.05836 0.040558,0.0856 0.044438,0.09892 0.086471,0.203544 0.1286261,0.317151 0.038302,0.103886 0.073057,0.20537 0.1017932,0.304864 0.00606,0.0207 0.015982,0.06294 0.035929,0.129863 0.04528,0.153912 0.1131873,0.331554 0.2206147,0.505215 0.07881,0.127913 0.175837,0.246786 0.287802,0.351526 0.131667,0.123696 0.272356,0.21705 0.39446,0.289022 0.128796,0.07576 0.259639,0.141621 0.365079,0.195542 0.0035,0.0018 0.0071,0.0036 0.01065,0.0053 0.0206,0.01008 0.01775,0.01011 0.0062,0.0018 0.03971,0.02779 0.07468,0.05555 0.126581,0.09835 0.118767,0.09852 0.24845,0.214209 0.395871,0.33568 0.07075,0.05811 0.157091,0.127716 0.253613,0.194213 0.04884,0.03311 0.143316,0.09725 0.262662,0.145855 0.0056,0.0023 0.01117,0.0045 0.0168,0.0066 0.01496,0.0056 0.08068,0.03118 0.163035,0.04555 0.04461,0.0078 0.101582,0.01385 0.167255,0.01103 0.06685,-0.0029 0.141577,-0.01492 0.219342,-0.04248 0.08793,-0.03116 0.176174,-0.06795 0.244785,-0.131161 0.06861,-0.06321 0.112489,-0.14815 0.150736,-0.233241 9.28e-4,-0.0021 0.0019,-0.0041 0.0028,-0.0062 0.02185,-0.04861 0.04241,-0.09826 0.05246,-0.150604 0.01005,-0.05234 0.0093,-0.106076 0.0071,-0.159324 -0.0035,-0.08123 -0.01999,-0.14511 -0.03048,-0.180379 -0.01117,-0.03754 -0.01783,-0.05337 -0.01635,-0.04922 l -0.0076,-0.02034 c -0.03092,-0.07859 -0.06873,-0.149261 -0.08322,-0.177138 -0.05893,-0.111386 -0.118318,-0.214178 -0.17028,-0.303769 -0.148408,-0.254696 -0.308396,-0.518305 -0.449093,-0.754097 -0.06233,-0.104712 -0.117376,-0.196932 -0.170263,-0.290602 -0.02989,-0.05436 -0.02527,-0.04582 -0.0238,-0.04234 0.0029,0.0069 0.0057,0.01377 0.0084,0.02073 -0.0409,-0.106325 -0.0795,-0.211032 -0.115953,-0.313996 -0.149968,-0.423291 -0.273204,-0.846215 -0.373741,-1.263214 -0.124042,-0.513578 -0.216173,-1.027559 -0.288411,-1.527341 -0.01982,-0.133537 -0.03424,-0.264271 -0.04555,-0.391553 -0.03587,-0.403817 -0.04922,-0.836081 -0.08509,-1.239876 -0.0281,-0.3203 -0.06788,-0.620771 -0.134774,-0.915992 -0.06886,-0.303826 -0.160361,-0.570672 -0.272172,-0.808349 a 0.68421,0.68421 90 0 0 -1.2382455,0.582514 z"
         id="path-1-4"
         inkscape:path-effect="#path-effect32;#path-effect33"
         inkscape:original-d="m 10.331053,34.563061 c 0.441298,0.93867 0.327994,2.101873 0.473729,3.122016 0.164218,1.149531 0.402988,2.201992 0.822478,3.292667 0.06049,0.157278 0.953763,1.563642 0.894999,1.587123 -0.154921,0.0619 -0.811799,-0.628282 -1.046434,-0.748067 -0.509453,-0.260084 -0.819734,-0.406932 -0.976365,-1.007352 -0.06685,-0.256259 -0.220704,-0.660355 -0.328421,-0.875789 -0.157358,-0.314716 0.05024,-1.55881 0,-1.960753 -0.13958,-1.116641 -0.1841674,-2.461958 0.611499,-3.257625"
         style="fill:#1a1a1a;fill-opacity:1;fill-rule:nonzero;stroke:none;stroke-width:3;stroke-dasharray:none;stroke-opacity:1"
         transform="translate(11.936696,10.520941)" /><path
         d="m 8.7082697,36.205356 c 0.00948,0.07167 0.019781,0.170898 0.028543,0.353285 0.00826,0.172004 0.012841,0.384971 0.0289,0.60656 0.0052,0.07158 0.011404,0.140861 0.019014,0.209145 0.00945,0.08475 0.022675,0.182577 0.042129,0.287505 0.028807,0.155454 0.069485,0.316228 0.1275812,0.477453 0.015968,0.04434 0.029939,0.07946 0.038411,0.100328 a 0.91228,0.91228 90 0 0 1.6904934,-0.686476 c -0.0026,-0.0063 -0.0071,-0.01762 -0.01234,-0.03224 -0.01922,-0.05333 -0.03622,-0.116403 -0.05015,-0.191593 -0.0096,-0.05168 -0.01694,-0.104513 -0.0228,-0.157071 -0.0047,-0.04174 -0.0088,-0.08745 -0.01257,-0.139082 -0.01162,-0.160392 -0.01645,-0.358523 -0.02622,-0.562036 -0.01077,-0.224214 -0.02498,-0.374825 -0.04219,-0.504975 a 0.91228,0.91228 90 0 0 -1.8088123,0.2392 z"
         id="path-1-5"
         inkscape:path-effect="#path-effect34;#path-effect35"
         inkscape:original-d="m 9.612676,36.085756 c 0.079759,0.60267 -0.00325,1.247522 0.2254184,1.810638"
         style="fill:#1a1a1a;fill-opacity:1;fill-rule:nonzero;stroke:none;stroke-width:3;stroke-dasharray:none;stroke-opacity:1"
         transform="translate(11.936696,10.520941)" /><path
         d="m 10.478459,40.865715 c -0.04627,-0.05568 -0.11784,-0.150339 -0.191906,-0.293174 -0.06248,-0.120259 -0.121304,-0.262351 -0.184364,-0.450945 -0.0707,-0.211429 -0.1380303,-0.461057 -0.2292608,-0.743711 -0.020684,-0.06408 -0.043936,-0.133563 -0.069733,-0.205646 -0.024213,-0.06757 -0.056334,-0.153675 -0.095235,-0.246083 -0.058606,-0.136055 -0.1270512,-0.249115 -0.174914,-0.329999 -0.052582,-0.08875 -0.078329,-0.134447 -0.094261,-0.173539 -0.00711,-0.01741 -0.00727,-0.02464 -0.00631,-0.01614 -0.023139,-0.188094 -0.038111,-0.375323 -0.047842,-0.57086 -0.011686,-0.238842 -0.01481,-0.47968 -0.00854,-0.721137 0.00515,-0.192209 0.016028,-0.379114 0.035514,-0.561262 0.0067,-0.06174 0.013804,-0.119059 0.022038,-0.173336 0.013872,-0.08892 0.040773,-0.183328 0.07848,-0.278684 0.043928,-0.111467 0.1023986,-0.225246 0.1714118,-0.347692 0.066107,-0.117612 0.1429212,-0.244534 0.2166429,-0.380131 0.06833,-0.126145 0.1326751,-0.257314 0.1836681,-0.402357 0.01575,-0.04492 0.0274,-0.08317 0.03611,-0.114142 A 0.68421,0.68421 90 0 0 8.8025546,34.486676 c -0.00194,0.0069 -0.00505,0.0173 -0.00986,0.031 -0.017299,0.04921 -0.044712,0.109696 -0.095255,0.203004 -0.053959,0.09925 -0.1252628,0.217246 -0.2064162,0.361629 -0.081313,0.144267 -0.1745833,0.320638 -0.2517427,0.516432 -0.068505,0.173243 -0.1258583,0.365984 -0.1581543,0.573098 -0.012492,0.08231 -0.021966,0.160044 -0.030077,0.234818 -0.024336,0.227487 -0.037018,0.451809 -0.042909,0.671745 -0.0072,0.277387 -0.00359,0.5524 0.00973,0.82466 0.011049,0.222024 0.028441,0.443139 0.055646,0.66396 0.015773,0.13978 0.055679,0.268287 0.098213,0.372462 0.060672,0.148866 0.1413115,0.282117 0.1838173,0.353863 0.057287,0.09681 0.077949,0.133085 0.093454,0.169062 0.02368,0.05631 0.046626,0.117433 0.065892,0.171195 0.019696,0.05504 0.038283,0.11044 0.055766,0.164606 0.07673,0.237725 0.14653,0.496539 0.2337369,0.757336 0.078444,0.234604 0.1633462,0.446756 0.2675979,0.647411 0.1279661,0.246779 0.2591381,0.423192 0.3540285,0.537374 a 0.68421,0.68421 90 0 0 1.0524338,-0.874618 z"
         id="path-1-3"
         inkscape:path-effect="#path-effect38;#path-effect39"
         inkscape:original-d="M 9.9522419,41.303024 C 9.4446472,40.691435 9.3748363,39.907917 9.0819622,39.202543 8.9851345,38.969338 8.7865782,38.755259 8.7535414,38.490965 c -0.080967,-0.647736 -0.091739,-1.547299 0,-2.189472 0.098862,-0.692032 0.5742075,-1.154635 0.7077097,-1.629716"
         style="fill:#1a1a1a;fill-opacity:1;fill-rule:nonzero;stroke:none;stroke-width:3;stroke-dasharray:none;stroke-opacity:1"
         transform="translate(11.936696,10.520941)" /><path
         d="m 5.444507,33.58789 c -0.036228,0.09593 -0.084101,0.202945 -0.1588908,0.351094 -0.1053069,0.20813 -0.2270742,0.425983 -0.3326612,0.634667 -0.082413,0.162643 -0.1781479,0.362145 -0.2580728,0.579795 -0.062073,0.16926 -0.1215441,0.368183 -0.1542486,0.586998 -0.026071,0.173876 -0.035603,0.365778 -0.014526,0.566526 0.01391,0.133761 0.041345,0.269699 0.083373,0.40425 9.452e-4,0.0049 0.00294,0.01519 0.00657,0.03409 0.010158,0.056 0.019872,0.120719 0.028079,0.18806 0.0066,0.05535 0.010688,0.09958 0.012089,0.138033 7.62e-4,0.02589 -8.465e-4,0.0139 0.00205,-0.0094 8.287e-4,-0.0066 0.00176,-0.01329 0.00278,-0.01991 -0.00185,0.01196 -0.00117,-0.0034 0.010163,-0.04645 0.011299,-0.04296 0.035618,-0.118198 0.094868,-0.201438 0.027513,-0.03865 0.056302,-0.07677 0.091351,-0.10875 0.035048,-0.03198 0.075589,-0.05723 0.1164857,-0.08128 -0.00206,0.0012 -0.00412,0.0024 -0.00617,0.0036 l 0.1403672,-0.06253 c 0.046992,-0.01487 0.102463,-0.02495 0.1648095,-0.0242 0.063311,7.65e-4 0.1386699,0.0129 0.2170436,0.04724 0.05931,0.02523 0.1074202,0.06073 0.1393428,0.08927 0.031701,0.02834 0.052018,0.05389 0.062845,0.06871 0.025142,0.03462 0.026857,0.04593 0.020491,0.03066 -0.00987,-0.02399 -0.020738,-0.05784 -0.040791,-0.12438 -0.017555,-0.05833 -0.045025,-0.154824 -0.079468,-0.248312 -0.02324,-0.06287 -0.055997,-0.141941 -0.1046163,-0.224944 -0.065751,-0.114566 -0.1381263,-0.228322 -0.1913337,-0.312967 -0.1066551,-0.169355 -0.184751,-0.296132 -0.2512666,-0.425903 -0.023551,-0.04599 -0.043594,-0.08851 -0.060646,-0.128392 -0.019665,-0.046 -0.035683,-0.08928 -0.048277,-0.130415 -0.020728,-0.06771 -0.030391,-0.125009 -0.032234,-0.172404 -0.00164,-0.041 0.00257,-0.07789 0.010719,-0.109783 0.00533,-0.0207 0.00925,-0.03022 0.00872,-0.02896 0.00655,-0.01541 0.019814,-0.04021 0.04767,-0.07942 0.037486,-0.05261 0.08537,-0.10901 0.1458528,-0.175989 0.083026,-0.09189 0.1814892,-0.193152 0.2799851,-0.305721 0.071127,-0.08154 0.1407268,-0.167036 0.2053406,-0.263445 0.042859,-0.06411 0.076455,-0.122612 0.103968,-0.177608 a 0.68421,0.68421 90 0 0 -1.2238202,-0.61224 c -0.00129,0.0026 -0.00594,0.01164 -0.017339,0.02869 -0.019829,0.02959 -0.048661,0.06694 -0.09868,0.124286 -0.067725,0.0774 -0.1577282,0.170127 -0.2649365,0.288781 -0.070775,0.07838 -0.1608485,0.181306 -0.2453885,0.299961 -0.062176,0.08752 -0.1337987,0.200507 -0.1914432,0.33604 -0.034741,0.08129 -0.058364,0.159368 -0.075399,0.225509 -0.042662,0.16687 -0.059302,0.336681 -0.052597,0.50391 0.00724,0.186266 0.042901,0.3615 0.091122,0.519017 0.02891,0.09442 0.062587,0.183755 0.098486,0.267726 0.0312,0.07298 0.065094,0.144281 0.1010159,0.214426 0.097486,0.190195 0.2056659,0.363559 0.3109179,0.530685 0.060179,0.09574 0.1152491,0.182464 0.1641403,0.267852 0.00169,0.0029 0.0034,0.0059 0.00513,0.0088 -0.00709,-0.01197 -0.00645,-0.01421 0.00112,0.0063 0.01565,0.04248 0.026848,0.08236 0.052972,0.16916 0.017733,0.05884 0.046463,0.155397 0.086883,0.253575 0.024417,0.05857 0.066714,0.153572 0.137622,0.251233 0.031695,0.04338 0.074246,0.09485 0.1311454,0.14572 0.056909,0.05088 0.1329749,0.105438 0.2300186,0.146777 0.1030575,0.04519 0.2119603,0.06374 0.3091655,0.06491 0.09605,0.0012 0.1855151,-0.01444 0.264664,-0.0395 0.048984,-0.0155 0.096078,-0.03648 0.1403672,-0.06253 0.00205,-0.0012 0.00411,-0.0024 0.00617,-0.0036 0.042067,-0.02474 0.083705,-0.05083 0.1196075,-0.08389 0.035903,-0.03306 0.065405,-0.07234 0.093706,-0.112101 0.068426,-0.09613 0.098428,-0.185937 0.1137063,-0.244026 0.015326,-0.05827 0.018283,-0.08933 0.018785,-0.09258 0.00102,-0.0066 0.00195,-0.01326 0.00278,-0.01991 0.011208,-0.08993 0.00877,-0.169383 0.00769,-0.205292 -0.00355,-0.09789 -0.012633,-0.184887 -0.021172,-0.256451 -0.011358,-0.09322 -0.024968,-0.184532 -0.041529,-0.275558 -0.00393,-0.02066 -0.016297,-0.09244 -0.036536,-0.161933 -0.00201,-0.0069 -0.00413,-0.01377 -0.00636,-0.02061 -0.015868,-0.04871 -0.026115,-0.09811 -0.031165,-0.14668 -0.00728,-0.06934 -0.00482,-0.143817 0.00686,-0.221712 0.015138,-0.101281 0.044912,-0.207327 0.085559,-0.318163 0.052767,-0.143694 0.120927,-0.288337 0.194056,-0.432658 0.1095694,-0.216194 0.2237402,-0.419754 0.3333332,-0.635995 0.088556,-0.175417 0.1588608,-0.328924 0.2177546,-0.484868 A 0.68421,0.68421 90 0 0 5.444507,33.58789 Z"
         id="path-1-6"
         inkscape:path-effect="#path-effect40;#path-effect41"
         inkscape:original-d="m 6.0845912,33.829624 c -0.3157408,0.837475 -1.1256129,1.744706 -0.8168692,2.693739 0.023977,0.0737 0.1177879,0.652601 0.046862,0.674261 C 5.06048,37.275226 5.0338004,36.746306 4.9029626,36.515064 4.61244,36.001598 4.0420928,35.330563 4.2732956,34.636955 4.4051301,34.241451 4.9188362,33.893242 5.0943476,33.542219"
         style="fill:#1a1a1a;fill-opacity:1;fill-rule:nonzero;stroke:none;stroke-width:3;stroke-dasharray:none;stroke-opacity:1"
         transform="translate(11.936696,10.520941)" /></g><path
       d="m 16.841607,47.881223 c -0.0042,0.136892 -0.01216,0.444831 0.0064,0.786312 0.0075,0.135968 0.0193,0.284114 0.03902,0.438532 0.0038,0.02946 0.008,0.06082 0.01286,0.09374 0.01716,0.11621 0.04397,0.269943 0.08853,0.435894 0.03014,0.111785 0.07101,0.239877 0.129751,0.372089 0.04691,0.105285 0.107313,0.218358 0.188287,0.328706 0.07591,0.103343 0.166265,0.199014 0.273274,0.28002 0.128336,0.09738 0.250691,0.149978 0.335541,0.178845 a 0.68421,0.68421 90 0 0 0.440732,-1.295504 c 0.0166,0.0056 0.03438,0.014 0.05027,0.02606 0.01058,0.008 0.01081,0.01105 0.0033,7.5e-4 -0.0095,-0.01294 -0.02371,-0.03613 -0.04109,-0.07513 -0.02159,-0.0486 -0.0409,-0.105769 -0.0586,-0.171405 -0.02583,-0.09616 -0.04342,-0.193643 -0.05614,-0.27977 -0.0034,-0.0232 -0.0065,-0.046 -0.0093,-0.06769 -0.01458,-0.114116 -0.02391,-0.228386 -0.03003,-0.339843 -0.01532,-0.28153 -0.0089,-0.542671 -0.005,-0.66957 a 0.68421,0.68421 90 0 0 -1.367774,-0.04203 z"
       id="path-1-76"
       inkscape:path-effect="#path-effect42;#path-effect43"
       inkscape:original-d="m 17.525494,47.90224 c -0.01803,0.590175 -0.02136,2.02976 0.610173,2.245368"
       style="fill:#1a1a1a;fill-opacity:1;fill-rule:nonzero;stroke:none;stroke-width:3;stroke-dasharray:none;stroke-opacity:1" /></g></svg>
